<svg id="Layer_1" data-name="Layer 1" xmlns="http://www.w3.org/2000/svg" viewBox="0 0 801.38 127.99"><defs><style>.cls-1{fill:#fff;}.cls-2{opacity:0.23;}</style></defs><title>Teqneia Official logo white backround-navy blue (color-grey-black) (smaller sizes)</title><path class="cls-1" d="M875.31,373.15a9.1,9.1,0,0,1-3.87.86,9,9,0,0,1-8.1-5l-45.18-92.82L773,369a9,9,0,0,1-8.08,5,9.08,9.08,0,0,1-3.88-.86,8.81,8.81,0,0,1-4.2-11.82l52.61-108,.75-1.56a8.92,8.92,0,0,1,7.35-5,5.48,5.48,0,0,1,1.28,0,8.9,8.9,0,0,1,7.34,5l.75,1.56,52.62,108A8.83,8.83,0,0,1,875.31,373.15Z" transform="translate(-79 -246.51)"/><path class="cls-1" d="M205,255.48a8,8,0,0,1-8,8H150.7a7.48,7.48,0,0,1,.21,1.78v101.3a8,8,0,0,1-2.33,5.63,8,8,0,0,1-13.64-5.63V265.24a7,7,0,0,1,.22-1.78H87a8,8,0,1,1,0-15.94H197A8,8,0,0,1,205,255.48Z" transform="translate(-79 -246.51)"/><path class="cls-1" d="M584,254.92V364.7a7.72,7.72,0,0,1-.47,2.69,8.2,8.2,0,0,1-1.86,3,8.08,8.08,0,0,1-3.1,1.91c-3.07.68-6.79-.65-9.5-3.63a3.16,3.16,0,0,1-.35-.39l-78.19-93v89.37a8,8,0,0,1-8,8,8,8,0,0,1-8-8V254.48a8,8,0,0,1,8-8,7.75,7.75,0,0,1,3.92,1,12,12,0,0,1,4.4,3.33l77.17,91.77V254.92a8,8,0,0,1,8-8A8,8,0,0,1,584,254.92Z" transform="translate(-79 -246.51)"/><path class="cls-1" d="M305.61,247.37H231.7c-5.72,0-10.36,3.58-10.36,8h0c0,4.41,4.64,8,10.36,8h73.91c5.73,0,10.37-3.58,10.37-8h0C316,251,311.34,247.37,305.61,247.37Z" transform="translate(-79 -246.51)"/><path class="cls-1" d="M305.61,302.29H231.7c-5.72,0-10.36,3.58-10.36,8h0c0,4.41,4.64,8,10.36,8h73.91c5.73,0,10.37-3.57,10.37-8h0C316,305.87,311.34,302.29,305.61,302.29Z" transform="translate(-79 -246.51)"/><path class="cls-1" d="M305.61,357.6H231.7c-5.72,0-10.36,3.57-10.36,8h0c0,4.41,4.64,8,10.36,8h73.91c5.73,0,10.37-3.57,10.37-8h0C316,361.17,311.34,357.6,305.61,357.6Z" transform="translate(-79 -246.51)"/><path class="cls-1" d="M683.31,247.18H609.4c-5.72,0-10.37,3.57-10.37,8h0c0,4.41,4.65,8,10.37,8h73.91c5.73,0,10.37-3.58,10.37-8h0C693.68,250.75,689,247.18,683.31,247.18Z" transform="translate(-79 -246.51)"/><path class="cls-1" d="M683.31,302.1H609.4c-5.72,0-10.37,3.58-10.37,8h0c0,4.4,4.65,8,10.37,8h73.91c5.73,0,10.37-3.58,10.37-8h0C693.68,305.68,689,302.1,683.31,302.1Z" transform="translate(-79 -246.51)"/><path class="cls-1" d="M683.31,357.41H609.4c-5.72,0-10.37,3.57-10.37,8h0c0,4.41,4.65,8,10.37,8h73.91c5.73,0,10.37-3.57,10.37-8h0C693.68,361,689,357.41,683.31,357.41Z" transform="translate(-79 -246.51)"/><path class="cls-1" d="M742.72,288c-2.24,25.12-4.24,49.93-9.48,74.67-.52,2.44-1.9,9.49-6.16,10.69a3.54,3.54,0,0,1-.45.1,2.44,2.44,0,0,1-.44-.06c-4-.82-5.54-8.07-6.08-10.72-5.06-24.77-6.88-49.6-8.93-74.74-.5-6.16,3.71-5.8,8.73-6.19.52,0,3.56.66,6.19.66h.09c2.8,0,7.22-.71,7.85-.66C739.07,282.2,743.26,281.86,742.72,288Z" transform="translate(-79 -246.51)"/><ellipse class="cls-1" cx="647.95" cy="14.82" rx="14.9" ry="14.54"/><path class="cls-1" d="M434.54,285.93v5.26" transform="translate(-79 -246.51)"/><path class="cls-1" d="M395.05,317.46a7.89,7.89,0,1,1,7.89-7.88A7.89,7.89,0,0,1,395.05,317.46Z" transform="translate(-79 -246.51)"/><g class="cls-2"><path class="cls-1" d="M400.88,276.19a39.64,39.64,0,0,0-28.54,9.63,40.25,40.25,0,0,0-13.49,27.44,2.79,2.79,0,0,1-2.92,1.61,2.86,2.86,0,0,1-2.23-2c.22-3,1.65-19,15.24-31A43.93,43.93,0,0,1,401.24,271a2.87,2.87,0,0,1,1.73,3.22A2.7,2.7,0,0,1,400.88,276.19Z" transform="translate(-79 -246.51)"/></g><g class="cls-2"><path class="cls-1" d="M375.57,309.71a2.75,2.75,0,0,1-2.54,2,2.8,2.8,0,0,1-2.72-1.94,24.76,24.76,0,0,1,24.55-24.9,2.65,2.65,0,0,1,.05,5.26,19.87,19.87,0,0,0-13.72,5.81A19.27,19.27,0,0,0,375.57,309.71Z" transform="translate(-79 -246.51)"/></g><path class="cls-1" d="M400.88,276.19a39.64,39.64,0,0,0-28.54,9.63,40.25,40.25,0,0,0-13.49,27.44,2.79,2.79,0,0,1-2.92,1.61,2.86,2.86,0,0,1-2.23-2c.22-3,1.65-19,15.24-31A43.93,43.93,0,0,1,401.24,271a2.87,2.87,0,0,1,1.73,3.22A2.7,2.7,0,0,1,400.88,276.19Z" transform="translate(-79 -246.51)"/><path class="cls-1" d="M375.57,309.71a2.75,2.75,0,0,1-2.54,2,2.8,2.8,0,0,1-2.72-1.94,24.76,24.76,0,0,1,24.55-24.9,2.65,2.65,0,0,1,.05,5.26,19.87,19.87,0,0,0-13.72,5.81A19.27,19.27,0,0,0,375.57,309.71Z" transform="translate(-79 -246.51)"/><path class="cls-1" d="M395.05,317.46a7.89,7.89,0,1,1,7.89-7.88A7.89,7.89,0,0,1,395.05,317.46Z" transform="translate(-79 -246.51)"/><path class="cls-1" d="M455,358.62c-1.46-1.59-10.35-10-10.08-10.33a63.32,63.32,0,1,0-11,11.27q3.11,3.07,6.19,6.15c3.22,3.05,6.3,7.69,11.23,7.67a7.09,7.09,0,0,0,4.52-1.52c2.67-2.26,2.63-6.46,1.89-8.7a13.69,13.69,0,0,0-2.59-4.37A1,1,0,0,0,455,358.62ZM433.58,337l-21.71-21.58c-.51-.51-.93-1-1.51-1.52a16.69,16.69,0,0,1-3.78,6.2,17.51,17.51,0,0,1-8,4.29s.95,1,1.05,1.06c3.55,3.64,7.21,7.16,10.8,10.76l9.64,9.56,2.56,2.55a47.33,47.33,0,1,1,11-11.32Z" transform="translate(-79 -246.51)"/><path class="cls-1" d="M400.88,276.19a39.64,39.64,0,0,0-28.54,9.63,40.25,40.25,0,0,0-13.49,27.44,2.79,2.79,0,0,1-2.92,1.61,2.86,2.86,0,0,1-2.23-2c.22-3,1.65-19,15.24-31A43.93,43.93,0,0,1,401.24,271a2.87,2.87,0,0,1,1.73,3.22A2.7,2.7,0,0,1,400.88,276.19Z" transform="translate(-79 -246.51)"/><path class="cls-1" d="M375.57,309.71a2.75,2.75,0,0,1-2.54,2,2.8,2.8,0,0,1-2.72-1.94,24.76,24.76,0,0,1,24.55-24.9,2.65,2.65,0,0,1,.05,5.26,19.87,19.87,0,0,0-13.72,5.81A19.27,19.27,0,0,0,375.57,309.71Z" transform="translate(-79 -246.51)"/><path class="cls-1" d="M395.05,317.46a7.89,7.89,0,1,1,7.89-7.88A7.89,7.89,0,0,1,395.05,317.46Z" transform="translate(-79 -246.51)"/><path class="cls-1" d="M395.05,317.46a7.89,7.89,0,1,1,7.89-7.88A7.89,7.89,0,0,1,395.05,317.46Z" transform="translate(-79 -246.51)"/><path class="cls-1" d="M408.17,334.05" transform="translate(-79 -246.51)"/><path class="cls-1" d="M386.22,312.26" transform="translate(-79 -246.51)"/><path class="cls-1" d="M422.09,325" transform="translate(-79 -246.51)"/><path class="cls-1" d="M400.14,303.21" transform="translate(-79 -246.51)"/><path class="cls-1" d="M409.79,335.59" transform="translate(-79 -246.51)"/><path class="cls-1" d="M387.84,313.79" transform="translate(-79 -246.51)"/><path class="cls-1" d="M411.11,334.65" transform="translate(-79 -246.51)"/><path class="cls-1" d="M389.16,312.86" transform="translate(-79 -246.51)"/><path class="cls-1" d="M422.31,325.8" transform="translate(-79 -246.51)"/><path class="cls-1" d="M400.36,304" transform="translate(-79 -246.51)"/></svg>